<svg xmlns="http://www.w3.org/2000/svg" xml:space="preserve" viewBox="0 0 234.3 234.3" height="24" width="24"><path fill="#46e3b7" d="M145 31.7h-2v22.5h22.6V31.7h-2zm-59.8 0c-7.2 0-14.2 1.4-20.8 4.2-6.4 2.7-12.1 6.6-17 11.5s-8.8 10.6-11.5 17C33.1 71 31.7 78 31.7 85.2v80.4h22.6V84.9c.4-8.1 3.8-15.7 9.5-21.3 5.8-5.7 13.4-9 21.5-9.3h43.2V31.7H85.2zm96.9 74.2h-2v22.6h22.6v-22.6h-2zm0-37.1h-2v22.6h22.6V68.8h-2zm18.6-37.1h-20.6v22.5h22.6V31.7zM182.1 143h-2v22.6h22.6V143h-2zm0 37.1h-2v22.6h22.6v-22.6h-2zm-37.1 0h-2v22.6h22.6v-22.6h-2zm-37.1 0h-2v22.6h22.6v-22.6h-2zm-37.1 0h-2v22.6h22.6v-22.6h-2zm-37.1 0h-2v22.6h22.5v-22.6h-2z"/></svg>
