<svg xmlns="http://www.w3.org/2000/svg" viewBox="0 0 51 44" height="24" width="24"><g fill="none"><path fill="#C9F4FF" d="M17.9 1.7C17.4 1 16.7.5 15.8.5H3.1C1.7.5.6 1.6.6 3c0 .5.1.9.4 1.3l2.6 4.1 16.9-2.7-2.6-4Z"/><path fill="#51B9FF" d="M20.5 5.8c-.5-.7-1.2-1.2-2.1-1.2H5.7c-1.4 0-2.5 1.1-2.5 2.5 0 .5.1.9.4 1.3l3.6 5.8 16.9-2.6-3.6-5.8Z"/><path fill="#007BFC" d="M7.2 14.2c-.7-1.2-.4-2.7.8-3.4.4-.2.9-.4 1.3-.4H22c.9 0 1.6.4 2.1 1.2l11.4 18c.5.8.5 1.8 0 2.7l-6.3 10.1c-.7 1.2-2.2 1.5-3.4.8-.3-.2-.6-.5-.8-.8L7.2 14.2Zm32.1 5.4c.7 1.2 2.2 1.5 3.4.8.3-.2.6-.5.8-.8l2.2-3.5 4.2-6.6c.5-.8.5-1.8 0-2.7l-3.3-5.2C46.1.9 45.4.4 44.5.4H31.7c-1.4 0-2.5 1.1-2.5 2.5 0 .5.1.9.4 1.3l9.7 15.4Z"/></g></svg>
